<?xml version="1.0" encoding="utf-8"?>
<!-- Generator: Adobe Illustrator 16.0.3, SVG Export Plug-In . SVG Version: 6.00 Build 0)  -->
<!DOCTYPE svg PUBLIC "-//W3C//DTD SVG 1.1//EN" "http://www.w3.org/Graphics/SVG/1.1/DTD/svg11.dtd">
<svg version="1.1" id="Calque_1" xmlns="http://www.w3.org/2000/svg" xmlns:xlink="http://www.w3.org/1999/xlink" x="0px" y="0px"
	 width="560.852px" height="353.014px" viewBox="0 0 560.852 353.014" enable-background="new 0 0 560.852 353.014"
	 xml:space="preserve">
<g>
	<path fill="#00DD02" d="M56.885,328.908c0,7.527-3.459,13.285-10.376,17.271c-5.737,3.295-12.736,4.942-20.996,4.942
		c-7.976,0-16.479-1.831-25.513-5.493c2.319-5.249,3.561-8.199,3.723-8.85c0.285-1.262,0.448-4.557,0.488-9.889
		c6.063,12.248,13.998,18.372,23.805,18.372c11.8,0,17.699-3.58,17.699-10.742c0-5.94-3.539-10.213-10.619-12.817l-21.852-5.615
		c-8.504-3.133-12.756-8.605-12.756-16.418c0-6.266,2.889-11.78,8.667-16.541c3.946-3.255,7.589-5.33,10.925-6.226
		c2.279-0.61,5.921-0.915,10.926-0.915c7.405,0,14.648,1.566,21.729,4.699l-1.404,3.113c-0.813,1.18-1.465,2.523-1.953,4.027
		l-0.121,1.526c0.081,1.384,0.121,2.441,0.121,3.174c0,0.529-0.021,0.896-0.061,1.099c-0.244,0.651-1.2,1.628-2.869,2.93
		c-2.441-9.888-8.829-14.832-19.164-14.832c-4.762,0-8.505,1.184-11.23,3.547c-2.89,2.486-4.334,6.092-4.334,10.818
		c0,4.973,3.501,8.416,10.504,10.332l21.905,6.07C52.633,315.91,56.885,321.382,56.885,328.908z"/>
	<path fill="#00DD02" d="M147.584,351.061h-20.567c-1.262-4.271-3.459-9.643-6.592-16.113l-6.778-14.037
		c-5.737,1.141-13.265,4.863-22.582,11.17c-10.335,6.998-15.502,12.877-15.502,17.639c0,0.447,0.081,0.875,0.244,1.281l-4.273,0.061
		L61.219,351c2.686-1.871,8.138-10.864,16.357-26.978c3.255-6.348,9.42-18.575,18.494-36.683c0.081-0.406,0.121-0.813,0.121-1.221
		c0-2.441-1.302-4.658-3.906-6.652c-1.424-0.854-2.828-1.729-4.211-2.625l11.779-0.854c3.541-0.244,5.819,0.59,6.836,2.502
		c3.375,6.39,7.703,15.629,12.987,27.716c5.58,12.733,9.837,22.009,12.771,27.826c2.318,4.599,4.476,8.057,6.469,10.376
		C141.317,347.216,144.206,349.434,147.584,351.061z M111.878,317.459l-11.874-22.736l-19.826,37.834
		c2.646-3.057,7.736-6.133,15.271-9.229C97.035,322.675,102.512,320.719,111.878,317.459z"/>
	<path fill="#00DD02" d="M228.393,347.033c0,2.523-0.59,3.986-1.77,4.395l-1.099-0.244c0.162,0.08,0.447,0.283,0.854,0.609
		c-1.393-0.688-3.052-2.102-4.977-4.244l-49.895-56.817v41.561c0,3.697,1.059,7.171,3.174,10.421
		c1.425,2.193,3.927,4.956,7.508,8.287h-20.568c2.726-4.598,4.089-8.768,4.089-12.512v-54.261l-5.065-3.052
		c-1.384-0.366-3.053-0.916-5.006-1.648c-0.528-0.283-1.77-1.24-3.723-2.868l5.188-0.671h16.48l49.011,57.194v-41.508
		c0-1.749-0.143-2.93-0.427-3.54c-0.244-0.854-0.814-2.014-1.709-3.479l-6.653-5.189v-3.479h14.587V347.033z"/>
	<path fill="#00DD02" d="M318.298,275.805l-5.371,3.784c-1.953,1.384-3.438,3.581-4.456,6.592l-1.281,5.493
		c-3.337-3.784-5.799-6.164-7.385-7.141c-2.32-1.424-5.615-2.137-9.889-2.137h-7.995v58.166c0,2.85,0.143,4.741,0.427,5.677
		c0.326,1.099,1.384,2.686,3.174,4.761h-18.311c1.709-2.197,2.768-4.008,3.174-5.432l0.367-5.006v-49.316
		c0-3.783-1.1-6.469-3.297-8.057c-0.284-0.203-0.834-0.467-1.647-0.793h-9.948c-5.087,0-9.095,0.672-12.024,2.014l-11.108,6.775
		l7.508-11.047c2.197-3.215,3.315-7.955,3.356-14.222c2.237,3.866,4.821,6.53,7.751,7.995c2.604,1.262,6.287,1.893,11.048,1.893
		H318.298z"/>
	<g>
		<path fill="#00DD02" d="M394.634,146.5c-63.082-33.488-116.429-16.02-139.419-6.258c-58.508,29.792-108.706-55-17.118-140.242
			c-66.603,54.788-57.24,76.38-100.957,18.676c27.385,65.719,33.681,48.294-66.59,94.185c127.892-40.54,86.125-5.55,114.752,27.747
			c35.228,42.48,46.518,1.114-19.832,135.38c54.784-90.455,67.257-113.988,56.333-0.041
			c10.294-81.745,31.499-120.471,73.769-129.573c51.188-11.027,85.144,13.171,45.131,21.162
			c92.836,1.669,82.459,66.81,66.931,101.874c-16.295,36.794-41.163,10.757-62.83,57.604V276h-19.302l-2.869,0.543
			c0.488,1.913,2.014,3.293,4.578,4.147c1.424,0.448,2.258,0.956,2.502,1.524l0.02,0.976c2.197,1.588,3.071,4.272,3.071,8.056
			v49.316l-0.142,5.006c-0.407,1.424-1.24,3.234-2.949,5.432h18.311c-1.384-1.709-2.319-2.99-2.808-3.846
			c13.255-57.82,40.99-28.472,66.255-69.154C486.303,157.5,329.84,166.135,394.634,146.5z"/>
		<path fill="#00DD02" d="M379.803,340.563l-0.201,5.006c-0.408,1.424-1.301,3.234-3.01,5.432h18.311
			c-1.791-2.071-3.098-3.656-3.424-4.753c-0.285-0.934-0.676-2.823-0.676-5.667v-64.471l-17.005-0.121
			c3.946,1.502,6.005,5.176,6.005,11.02c0,0.488,0,1.209,0,2.162V340.563z"/>
	</g>
	<path fill="#00DD02" d="M490.052,313.463c0,12.492-4.477,22.381-13.428,29.664c-8.139,6.592-17.965,9.887-29.479,9.887
		c-11.679,0-21.506-3.295-29.48-9.887c-8.952-7.365-13.428-17.252-13.428-29.664c0-12.451,4.476-22.317,13.428-29.602
		c8.097-6.592,17.924-9.888,29.48-9.888c11.637,0,21.463,3.296,29.479,9.888C485.575,291.227,490.052,301.094,490.052,313.463z
		 M476.99,313.433c0-10.71-3.113-19.161-9.338-25.353c-5.575-5.578-12.411-8.369-20.508-8.369c-9.604,0-17.07,3.299-22.4,9.896
		c-4.965,6.068-7.446,14.01-7.446,23.825c0,9.734,2.503,17.655,7.507,23.765c5.371,6.639,12.818,9.957,22.34,9.957
		s16.967-3.318,22.338-9.957C474.488,331.088,476.99,323.167,476.99,313.433z"/>
	<path fill="#00DD02" d="M560.852,351h-15.014c-3.785-2.115-8.261-6.021-13.428-11.719c-0.814-0.895-4.599-5.473-11.354-13.732
		c-2.848-3.5-5.655-5.615-8.422-6.348v21.361c0,2.564,0.203,4.436,0.609,5.615c0.407,1.182,1.384,2.788,2.93,4.822h-18.676
		c2.074-2.115,3.234-3.723,3.479-4.822l0.488-5.615v-49.621c0-3.052-0.896-5.696-2.686-7.935c-2.116-2.604-3.54-3.906-4.272-3.906
		l-0.122-2.93l1.893-0.122c5.533-0.366,9.766,0.854,12.695,3.662l1.281,2.075c6.104-4.883,12.695-7.324,19.775-7.324
		c4.883,0,8.973,1.181,12.268,3.54c3.744,2.645,5.615,6.326,5.615,11.047c0,10.742-8.097,19.611-24.291,26.609
		c4.396,2.4,8.791,6.205,13.188,11.412c1.545,1.913,4.556,5.555,9.031,10.926C551.291,344.428,556.295,348.762,560.852,351z
		 M534.852,290.025c0-5.574-3.154-8.361-9.461-8.361c-2.849,0-5.493,0.529-7.935,1.587c-3.215,1.384-4.821,3.256-4.821,5.615v23.315
		C527.445,308.072,534.852,300.688,534.852,290.025z"/>
</g>
</svg>
